<svg width="25" height="24" viewBox="0 0 25 24" fill="none" xmlns="http://www.w3.org/2000/svg">
<path d="M5.52344 12.0234H5.53344M12.5234 12.0234H12.5334M19.5234 12.0234H19.5334M6.52344 12.0234C6.52344 12.2887 6.41808 12.543 6.23054 12.7305C6.04301 12.9181 5.78865 13.0234 5.52344 13.0234C5.25822 13.0234 5.00387 12.9181 4.81633 12.7305C4.62879 12.543 4.52344 12.2887 4.52344 12.0234C4.52344 11.7582 4.62879 11.5039 4.81633 11.3163C5.00387 11.1288 5.25822 11.0234 5.52344 11.0234C5.78865 11.0234 6.04301 11.1288 6.23054 11.3163C6.41808 11.5039 6.52344 11.7582 6.52344 12.0234ZM13.5234 12.0234C13.5234 12.2887 13.4181 12.543 13.2305 12.7305C13.043 12.9181 12.7887 13.0234 12.5234 13.0234C12.2582 13.0234 12.0039 12.9181 11.8163 12.7305C11.6288 12.543 11.5234 12.2887 11.5234 12.0234C11.5234 11.7582 11.6288 11.5039 11.8163 11.3163C12.0039 11.1288 12.2582 11.0234 12.5234 11.0234C12.7887 11.0234 13.043 11.1288 13.2305 11.3163C13.4181 11.5039 13.5234 11.7582 13.5234 12.0234ZM20.5234 12.0234C20.5234 12.2887 20.4181 12.543 20.2305 12.7305C20.043 12.9181 19.7887 13.0234 19.5234 13.0234C19.2582 13.0234 19.0039 12.9181 18.8163 12.7305C18.6288 12.543 18.5234 12.2887 18.5234 12.0234C18.5234 11.7582 18.6288 11.5039 18.8163 11.3163C19.0039 11.1288 19.2582 11.0234 19.5234 11.0234C19.7887 11.0234 20.043 11.1288 20.2305 11.3163C20.4181 11.5039 20.5234 11.7582 20.5234 12.0234Z" stroke="#EEEEEE" stroke-width="2" stroke-linecap="round" stroke-linejoin="round"/>
</svg>
