<svg width="20" height="20" viewBox="0 0 20 20" fill="none" xmlns="http://www.w3.org/2000/svg">
<path d="M12.6487 10.0234C12.6487 10.6533 12.3985 11.2574 11.9531 11.7028C11.5077 12.1482 10.9036 12.3984 10.2737 12.3984C9.64379 12.3984 9.0397 12.1482 8.5943 11.7028C8.1489 11.2574 7.89868 10.6533 7.89868 10.0234C7.89868 9.39355 8.1489 8.78946 8.5943 8.34406C9.0397 7.89866 9.64379 7.64844 10.2737 7.64844C10.9036 7.64844 11.5077 7.89866 11.9531 8.34406C12.3985 8.78946 12.6487 9.39355 12.6487 10.0234Z" stroke="#EEEEEE" stroke-opacity="0.933333" stroke-width="2" stroke-linecap="round" stroke-linejoin="round"/>
<path d="M2.71948 10.0234C3.72807 6.81156 6.72927 4.48169 10.2736 4.48169C13.8186 4.48169 16.8191 6.81156 17.8276 10.0234C16.8191 13.2351 13.8186 15.565 10.2736 15.565C6.72927 15.565 3.72807 13.2351 2.71948 10.0234Z" stroke="#EEEEEE" stroke-opacity="0.933333" stroke-width="2" stroke-linecap="round" stroke-linejoin="round"/>
</svg>
