<svg width="101" height="100" viewBox="0 0 101 100" fill="none" xmlns="http://www.w3.org/2000/svg">
<rect x="0.5" width="100" height="100" rx="50" fill="#EAEAEA"/>
<path d="M49.452 50.216C49.452 55.544 45.948 59.288 40.908 59.288C35.892 59.288 32.436 55.568 32.436 50.216C32.436 44.888 35.916 41.144 40.932 41.144C45.948 41.144 49.452 44.864 49.452 50.216ZM46.212 50.216C46.212 46.472 44.148 44.096 40.932 44.096C37.716 44.096 35.652 46.472 35.652 50.216C35.652 53.96 37.716 56.336 40.932 56.336C44.148 56.336 46.212 53.912 46.212 50.216ZM59.9717 59.288C54.8597 59.288 51.5477 55.736 51.5477 50.24C51.5477 44.792 54.9797 41.168 60.1157 41.168C64.2677 41.168 67.3637 43.592 67.9637 47.36H64.7237C64.1237 45.32 62.3717 44.12 60.0437 44.12C56.8037 44.12 54.7637 46.472 54.7637 50.216C54.7637 53.936 56.8277 56.336 60.0437 56.336C62.4197 56.336 64.2437 55.088 64.8197 53.144H68.0117C67.3397 56.84 64.1237 59.288 59.9717 59.288Z" fill="#035A7A"/>
</svg>
