<svg width="50" height="51" viewBox="0 0 50 51" fill="none" xmlns="http://www.w3.org/2000/svg">
<circle cx="25" cy="25.5" r="25" fill="#3A98BB"/>
<path d="M25 24.5C26.6569 24.5 28 23.1569 28 21.5C28 19.8431 26.6569 18.5 25 18.5C23.3431 18.5 22 19.8431 22 21.5C22 23.1569 23.3431 24.5 25 24.5Z" stroke="#EFF8FB" stroke-width="2" stroke-linecap="round"/>
<path d="M28.268 21.5C28.3984 21.2707 28.5728 21.0695 28.7813 20.9079C28.9897 20.7463 29.2281 20.6275 29.4826 20.5584C29.7372 20.4893 30.0029 20.4712 30.2644 20.5052C30.526 20.5392 30.7783 20.6246 31.0067 20.7565C31.2351 20.8884 31.4352 21.0641 31.5954 21.2737C31.7556 21.4832 31.8728 21.7223 31.9402 21.9773C32.0076 22.2323 32.024 22.4981 31.9882 22.7595C31.9525 23.0208 31.8654 23.2725 31.732 23.5C31.4649 23.9556 31.0285 24.2871 30.5179 24.4221C30.0073 24.5571 29.464 24.4846 29.0066 24.2206C28.5493 23.9565 28.2149 23.5222 28.0765 23.0125C27.9382 22.5029 28.007 21.9591 28.268 21.5ZM18.268 21.5C18.3984 21.2707 18.5728 21.0695 18.7813 20.9079C18.9897 20.7463 19.2281 20.6275 19.4826 20.5584C19.7372 20.4893 20.0029 20.4712 20.2644 20.5052C20.526 20.5392 20.7783 20.6246 21.0067 20.7565C21.2351 20.8884 21.4352 21.0641 21.5954 21.2737C21.7556 21.4832 21.8728 21.7223 21.9402 21.9773C22.0076 22.2323 22.024 22.4981 21.9882 22.7595C21.9525 23.0208 21.8654 23.2725 21.732 23.5C21.4649 23.9556 21.0285 24.2871 20.5179 24.4221C20.0073 24.5571 19.464 24.4846 19.0066 24.2206C18.5493 23.9565 18.2149 23.5222 18.0765 23.0125C17.9382 22.5029 18.007 21.9591 18.268 21.5Z" stroke="#EFF8FB" stroke-width="2"/>
<path d="M29.882 31.5L28.902 31.697L29.062 32.5H29.882V31.5ZM27.78 28.211L27.176 27.414L26.019 28.293L27.253 29.06L27.78 28.211ZM32.868 30.5H29.883L29.882 32.5H32.868V30.5ZM32.778 30.738C32.7674 30.7047 32.7656 30.6692 32.773 30.635C32.7783 30.5994 32.7932 30.5659 32.816 30.538C32.848 30.498 32.875 30.5 32.868 30.5V32.5C34.014 32.5 35.141 31.42 34.663 30.07L32.778 30.738ZM30 28.5C31.642 28.5 32.403 29.681 32.778 30.738L34.663 30.07C34.198 28.759 32.948 26.5 30 26.5V28.5ZM28.386 29.007C28.77 28.715 29.282 28.5 30 28.5V26.5C28.838 26.5 27.903 26.862 27.176 27.414L28.386 29.007ZM27.253 29.06C28.292 29.706 28.727 30.832 28.901 31.697L30.861 31.303C30.644 30.22 30.037 28.436 28.309 27.361L27.253 29.06ZM22.22 28.21L22.747 29.06L23.981 28.293L22.824 27.414L22.22 28.21ZM20.118 31.5V32.5H20.937L21.099 31.697L20.118 31.5ZM20 28.5C20.718 28.5 21.23 28.715 21.614 29.007L22.824 27.414C22.097 26.862 21.162 26.5 20 26.5V28.5ZM17.222 30.738C17.597 29.681 18.358 28.5 20 28.5V26.5C17.052 26.5 15.802 28.759 15.337 30.07L17.222 30.738ZM17.132 30.5C17.126 30.5 17.152 30.498 17.185 30.538C17.2075 30.566 17.222 30.5995 17.227 30.635C17.2344 30.6692 17.2326 30.7047 17.222 30.738L15.337 30.07C14.86 31.42 15.987 32.5 17.133 32.5L17.132 30.5ZM20.118 30.5H17.132L17.133 32.5H20.118V30.5ZM21.098 31.697C21.273 30.832 21.708 29.706 22.748 29.06L21.69 27.36C19.962 28.435 19.355 30.22 19.137 31.302L21.098 31.697Z" fill="#EFF8FB"/>
<path d="M25 27.5C28.572 27.5 29.592 30.051 29.883 31.509C29.992 32.05 29.553 32.5 29 32.5H21C20.448 32.5 20.008 32.05 20.117 31.509C20.408 30.05 21.428 27.5 25 27.5Z" stroke="#EFF8FB" stroke-width="2" stroke-linecap="round"/>
</svg>
