<svg width="50" height="51" viewBox="0 0 50 51" fill="none" xmlns="http://www.w3.org/2000/svg">
<circle cx="25" cy="25.5" r="25" fill="#3A98BB"/>
<path d="M27.4847 18.7267C27.0685 18.7297 26.6552 18.7499 26.2188 18.8669C25.7431 18.9957 25.2919 19.2017 24.883 19.4767C24.3085 19.1392 23.752 18.8617 23.2188 18.7964C22.5565 18.7147 21.9415 18.7589 21.2267 18.7739C20.3793 18.7912 19.8265 19.2239 18.9295 19.5704C18.0333 19.9154 16.879 20.2499 15.25 20.2499H14.5V27.4687L14.9222 27.6794L16.3045 28.3597L21.2267 33.8437L21.25 33.8669C21.8125 34.4234 22.5715 34.5614 23.242 34.5232C23.9132 34.4857 24.5433 34.2892 25.0465 33.9847C26.1543 33.3164 29.1715 31.2187 29.1715 31.2187L29.242 31.1714L29.2892 31.1249C29.6462 30.7702 29.8255 30.3374 29.9455 29.8829L32.8278 28.4294L34.984 27.7034L35.5 27.5384V20.2499H34.75C33.4892 20.2593 32.2389 20.0203 31.0705 19.5464C30.1735 19.1962 29.629 18.7679 28.7725 18.7499C28.315 18.7409 27.9002 18.7237 27.4847 18.7267ZM27.5072 20.2267C27.8448 20.2237 28.2347 20.2417 28.7267 20.2499C28.8055 20.2529 29.5262 20.5604 30.5312 20.9534C31.381 21.2872 32.5615 21.5834 34 21.6794V26.4607L32.2653 27.0472H32.2188L32.1715 27.0697L29.899 28.2187C29.7784 27.8706 29.5868 27.5514 29.3365 27.2812L29.2892 27.2107L26.1017 23.2972L25.633 22.7107L25.0465 23.1794L23.0312 24.8204C22.3548 25.2892 21.8065 25.1542 21.25 24.8909C21.0887 24.8144 21.0978 24.7912 20.9688 24.7034L24.391 21.8669L24.4375 21.8204C25.4537 20.8124 26.0785 20.4637 26.617 20.3204C26.887 20.2469 27.1705 20.2297 27.5072 20.2267ZM22.282 20.2499C22.5322 20.2398 22.7829 20.2475 23.032 20.2732C23.2285 20.2964 23.4513 20.4637 23.6418 20.5312C23.5653 20.6017 23.5097 20.6422 23.4303 20.7187L23.3837 20.7659L19.282 24.1634L18.649 24.6794L19.2115 25.2652C19.2115 25.2652 19.7538 25.8517 20.5945 26.2499C21.4353 26.6482 22.7335 26.8739 23.899 26.0624L23.9462 26.0152L25.399 24.8204L28.165 28.2187L28.1882 28.2659L28.2115 28.2884C28.7065 28.7782 28.6952 29.5484 28.2115 30.0472C28.2055 30.0524 28.2175 30.0644 28.2115 30.0697C28.2055 30.0734 28.1065 30.1319 28.0945 30.1409L27.1097 28.8044L25.891 29.6954L26.8525 30.9839C26.4625 31.2479 26.287 31.3859 25.8678 31.6642L24.8605 30.3044L23.641 31.1954L24.6025 32.4839C24.517 32.5364 24.3415 32.6542 24.274 32.6954C24.037 32.8387 23.5795 32.9999 23.1722 33.0232C22.789 33.0442 22.4958 32.9557 22.3525 32.8357L22.3293 32.8124L17.3133 27.2579L17.2195 27.1402L16 26.5312V21.6794C17.4325 21.5857 18.622 21.3014 19.4688 20.9767C20.4707 20.5927 21.1863 20.2762 21.2733 20.2732L22.282 20.2499Z" fill="#EFF8FB"/>
</svg>
