<svg width="50" height="51" viewBox="0 0 50 51" fill="none" xmlns="http://www.w3.org/2000/svg">
<circle cx="25" cy="25.5" r="25" fill="#3A98BB"/>
<path d="M22 24.5002L24.0002 26.4998L28 22.5" stroke="#EFF8FB" stroke-width="2" stroke-linecap="round" stroke-linejoin="round"/>
<path d="M25 34.5L25.8798 34.1198C27.7246 33.3282 29.3177 32.0469 30.4864 30.4147C31.6551 28.7825 32.3549 26.8616 32.5101 24.8602L32.9402 19.3402C32.9472 19.1116 32.8755 18.8875 32.7371 18.7054C32.5987 18.5233 32.402 18.3943 32.1798 18.3398L25 16.5L17.8202 18.3C17.5981 18.3544 17.4015 18.4834 17.2631 18.6654C17.1247 18.8474 17.0529 19.0713 17.0598 19.2998L17.4899 24.8198C17.645 26.8214 18.3448 28.7424 19.5135 30.3746C20.6822 32.0069 22.2753 33.2883 24.1202 34.08L25 34.5Z" stroke="#EFF8FB" stroke-width="2" stroke-linecap="round" stroke-linejoin="round"/>
</svg>
