<svg width="24" height="25" viewBox="0 0 24 25" fill="none" xmlns="http://www.w3.org/2000/svg">
<path d="M8 7.5V3.5M16 7.5V3.5M7 11.5H17M5 21.5H19C19.5304 21.5 20.0391 21.2893 20.4142 20.9142C20.7893 20.5391 21 20.0304 21 19.5V7.5C21 6.96957 20.7893 6.46086 20.4142 6.08579C20.0391 5.71071 19.5304 5.5 19 5.5H5C4.46957 5.5 3.96086 5.71071 3.58579 6.08579C3.21071 6.46086 3 6.96957 3 7.5V19.5C3 20.0304 3.21071 20.5391 3.58579 20.9142C3.96086 21.2893 4.46957 21.5 5 21.5Z" stroke="#878787" stroke-width="2" stroke-linecap="round" stroke-linejoin="round"/>
</svg>
