<svg width="155" height="154" viewBox="0 0 155 154" fill="none" xmlns="http://www.w3.org/2000/svg">
<g clip-path="url(#clip0_1_172)">
<path d="M93.0615 80.2108L107.867 75.1133L128.965 67.8366L124.068 53.2877L96.5702 62.623L80.4521 14.9802L72.0799 17.8752L88.5259 66.751L93.0615 80.2108Z" stroke="#3A98BB"/>
<path d="M84.8541 121.302L99.6593 116.205L120.757 108.928L115.861 94.379L88.3629 103.714L82.1226 85.2702L81.9392 84.7365L77.1688 70.6045L72.2523 56.0781L70.9495 56.531L63.8726 58.9665L73.6753 88.0992L73.7015 88.1755L80.3186 107.842L84.8541 121.302Z" stroke="#3A98BB"/>
<path d="M64.1427 129.731L100.046 117.356L120.757 108.928L99.6595 116.205L84.8544 121.303L64.1427 129.731Z" stroke="#3A98BB"/>
<path d="M82.1227 85.2706L108.253 76.2648L128.965 67.8369L107.867 75.1136L93.0615 80.2111L81.9393 84.7369L82.1227 85.2706Z" stroke="#3A98BB"/>
<path d="M81.9393 84.7368L93.0615 80.211L88.5259 66.7512L72.0799 17.8754L51.3683 26.3034L62.5472 59.5063L63.8728 58.9669L70.9496 56.5314L72.2524 56.0785L77.1689 70.6049L81.9393 84.7368Z" stroke="#3A98BB"/>
<path d="M64.1426 129.73L84.8542 121.302L80.3186 107.842L73.7015 88.1756L73.6753 88.0994L63.8727 58.9667L62.5471 59.5061L43.1611 67.3947L64.1426 129.73Z" stroke="#3A98BB"/>
</g>
<defs>
<clipPath id="clip0_1_172">
<rect width="104" height="113" fill="white" transform="matrix(-0.659904 0.75135 0.75135 0.659904 69.3638 0.34375)"/>
</clipPath>
</defs>
</svg>
