<svg width="104" height="113" viewBox="0 0 104 113" fill="none" xmlns="http://www.w3.org/2000/svg">
<path d="M44.3699 70.5099L30.7699 78.2699L11.3799 89.3199L3.67993 76.0399L28.8399 61.5399L3.67993 17.9899L11.3799 13.6099L37.2499 58.2199L44.3699 70.5099Z" stroke="#3A98BB"/>
<path d="M80.66 91.4596L67.06 99.2196L47.67 110.27L39.97 96.9896L65.13 82.4896L55.39 65.6296L55.11 65.1396L47.64 52.2296L39.97 38.9496L41.17 38.2696L47.67 34.5596L63.09 61.1496L63.13 61.2196L73.54 79.1696L80.66 91.4596Z" stroke="#3A98BB"/>
<path d="M100.66 81.46L67.6699 100.27L47.6699 110.27L67.0599 99.22L80.6599 91.46L100.66 81.46Z" stroke="#3A98BB"/>
<path d="M55.3899 65.6301L31.3799 79.3201L11.3799 89.3201L30.7699 78.2701L44.3699 70.5101L55.1099 65.1401L55.3899 65.6301Z" stroke="#3A98BB"/>
<path d="M55.1099 65.1399L44.3699 70.5099L37.2499 58.2199L11.3799 13.6099L31.3799 3.60986L48.9499 33.9199L47.6699 34.5599L41.1699 38.2699L39.9699 38.9499L47.6399 52.2299L55.1099 65.1399Z" stroke="#3A98BB"/>
<path d="M100.66 81.4596L80.6599 91.4596L73.5399 79.1696L63.1299 61.2196L63.0899 61.1496L47.6699 34.5596L48.9499 33.9196L67.6699 24.5596L100.66 81.4596Z" stroke="#3A98BB"/>
</svg>
