<svg width="122" height="29" viewBox="0 0 122 29" fill="none" xmlns="http://www.w3.org/2000/svg">
<path d="M109.999 1.5H111.499V0H109.999V1.5ZM108.938 28.3107C109.524 28.8964 110.474 28.8964 111.06 28.3107L120.606 18.7647C121.191 18.1789 121.191 17.2292 120.606 16.6434C120.02 16.0576 119.07 16.0576 118.484 16.6434L109.999 25.1287L101.514 16.6434C100.928 16.0576 99.9782 16.0576 99.3924 16.6434C98.8066 17.2292 98.8066 18.1789 99.3924 18.7647L108.938 28.3107ZM0.25 1.5V3H109.999V1.5V0H0.25V1.5ZM109.999 1.5H108.499V27.25H109.999H111.499V1.5H109.999Z" fill="#EEEEEE"/>
</svg>
