<svg width="121" height="29" viewBox="0 0 121 29" fill="none" xmlns="http://www.w3.org/2000/svg">
<path d="M109.749 1.625H111.249V0.125H109.749V1.625ZM108.688 28.4357C109.274 29.0214 110.224 29.0214 110.81 28.4357L120.356 18.8897C120.941 18.3039 120.941 17.3542 120.356 16.7684C119.77 16.1826 118.82 16.1826 118.234 16.7684L109.749 25.2537L101.264 16.7684C100.678 16.1826 99.7282 16.1826 99.1424 16.7684C98.5566 17.3542 98.5566 18.3039 99.1424 18.8897L108.688 28.4357ZM0 1.625V3.125H109.749V1.625V0.125H0V1.625ZM109.749 1.625H108.249V27.375H109.749H111.249V1.625H109.749Z" fill="#222222"/>
</svg>
