<svg width="21" height="21" viewBox="0 0 21 21" fill="none" xmlns="http://www.w3.org/2000/svg">
<path d="M10.4999 5.75895V4.09229M10.4999 5.75895C10.0579 5.75895 9.63397 5.93455 9.32141 6.24711C9.00885 6.55967 8.83325 6.98359 8.83325 7.42562C8.83325 7.86765 9.00885 8.29157 9.32141 8.60413C9.63397 8.91669 10.0579 9.09229 10.4999 9.09229M10.4999 5.75895C10.9419 5.75895 11.3659 5.93455 11.6784 6.24711C11.991 6.55967 12.1666 6.98359 12.1666 7.42562C12.1666 7.86765 11.991 8.29157 11.6784 8.60413C11.3659 8.91669 10.9419 9.09229 10.4999 9.09229M10.4999 9.09229V17.4256M5.49992 15.759C5.94195 15.759 6.36587 15.5834 6.67843 15.2708C6.99099 14.9582 7.16659 14.5343 7.16659 14.0923C7.16659 13.6503 6.99099 13.2263 6.67843 12.9138C6.36587 12.6012 5.94195 12.4256 5.49992 12.4256M5.49992 15.759C5.05789 15.759 4.63397 15.5834 4.32141 15.2708C4.00885 14.9582 3.83325 14.5343 3.83325 14.0923C3.83325 13.6503 4.00885 13.2263 4.32141 12.9138C4.63397 12.6012 5.05789 12.4256 5.49992 12.4256M5.49992 15.759V17.4256M5.49992 12.4256V4.09229M15.4999 15.759C15.9419 15.759 16.3659 15.5834 16.6784 15.2708C16.991 14.9582 17.1666 14.5343 17.1666 14.0923C17.1666 13.6503 16.991 13.2263 16.6784 12.9138C16.3659 12.6012 15.9419 12.4256 15.4999 12.4256M15.4999 15.759C15.0579 15.759 14.634 15.5834 14.3214 15.2708C14.0088 14.9582 13.8333 14.5343 13.8333 14.0923C13.8333 13.6503 14.0088 13.2263 14.3214 12.9138C14.634 12.6012 15.0579 12.4256 15.4999 12.4256M15.4999 15.759V17.4256M15.4999 12.4256V4.09229" stroke="#878787" stroke-width="2" stroke-linecap="round" stroke-linejoin="round"/>
</svg>
