<svg width="21" height="21" viewBox="0 0 21 21" fill="none" xmlns="http://www.w3.org/2000/svg">
<path d="M18 18.2588L13 13.2588M14.6667 9.09212C14.6667 9.85817 14.5158 10.6167 14.2226 11.3244C13.9295 12.0322 13.4998 12.6752 12.9581 13.2169C12.4164 13.7586 11.7734 14.1883 11.0657 14.4814C10.3579 14.7746 9.59938 14.9255 8.83333 14.9255C8.06729 14.9255 7.30875 14.7746 6.60101 14.4814C5.89328 14.1883 5.25022 13.7586 4.70854 13.2169C4.16687 12.6752 3.73719 12.0322 3.44404 11.3244C3.15088 10.6167 3 9.85817 3 9.09212C3 7.54503 3.61458 6.06129 4.70854 4.96733C5.80251 3.87337 7.28624 3.25879 8.83333 3.25879C10.3804 3.25879 11.8642 3.87337 12.9581 4.96733C14.0521 6.06129 14.6667 7.54503 14.6667 9.09212Z" stroke="#878787" stroke-width="2" stroke-linecap="round" stroke-linejoin="round"/>
</svg>
