<svg width="596" height="23" viewBox="0 0 596 23" fill="none" xmlns="http://www.w3.org/2000/svg">
<line y1="11" x2="272.5" y2="11" stroke="#EAEAEA"/>
<path d="M300.1 11.772C300.1 15.244 297.844 17.692 294.644 17.692C291.428 17.692 289.188 15.244 289.188 11.772C289.188 8.3 291.444 5.836 294.644 5.836C297.86 5.836 300.1 8.284 300.1 11.772ZM298.916 11.772C298.916 8.908 297.172 6.956 294.644 6.956C292.116 6.956 290.388 8.908 290.388 11.772C290.388 14.636 292.116 16.588 294.644 16.588C297.172 16.588 298.916 14.62 298.916 11.772ZM305.997 9.66V10.652H305.389C303.965 10.652 303.053 11.612 303.053 13.084V17.5H301.949V9.756H302.989L303.069 10.956C303.373 10.124 304.189 9.58 305.277 9.58C305.517 9.58 305.725 9.596 305.997 9.66Z" fill="#767676"/>
<line x1="323.5" y1="11" x2="596" y2="11" stroke="#EAEAEA"/>
</svg>
