<svg width="25" height="25" viewBox="0 0 25 25" fill="none" xmlns="http://www.w3.org/2000/svg">
<path d="M15.922 7.25505L9.33602 13.841C9.145 14.0255 8.99264 14.2462 8.88782 14.4902C8.783 14.7342 8.72783 14.9967 8.72552 15.2622C8.72321 15.5278 8.77381 15.7912 8.87438 16.037C8.97494 16.2827 9.12344 16.5061 9.31123 16.6938C9.49902 16.8816 9.72232 17.0301 9.96811 17.1307C10.2139 17.2313 10.4773 17.2819 10.7428 17.2795C11.0084 17.2772 11.2708 17.2221 11.5148 17.1173C11.7588 17.0124 11.9795 16.8601 12.164 16.669L18.578 10.083C19.3067 9.32864 19.7098 8.31823 19.7007 7.26944C19.6916 6.22065 19.2709 5.2174 18.5293 4.47577C17.7877 3.73414 16.7844 3.31346 15.7356 3.30435C14.6868 3.29524 13.6764 3.69841 12.922 4.42705L6.50702 11.012C5.38171 12.1374 4.74951 13.6636 4.74951 15.255C4.74951 16.8465 5.38171 18.3727 6.50702 19.498C7.63233 20.6234 9.15859 21.2556 10.75 21.2556C12.3415 21.2556 13.8677 20.6234 14.993 19.498L21.25 13.255" stroke="#3A98BB" stroke-width="2" stroke-linecap="round" stroke-linejoin="round"/>
</svg>
