<svg width="21" height="21" viewBox="0 0 21 21" fill="none" xmlns="http://www.w3.org/2000/svg">
<path fill-rule="evenodd" clip-rule="evenodd" d="M5.17502 4.18366C6.48784 2.87084 8.26841 2.1333 10.125 2.1333C11.9816 2.1333 13.7622 2.87084 15.075 4.18366C16.3878 5.49648 17.1254 7.27705 17.1254 9.13366C17.1254 10.9903 16.3878 12.7708 15.075 14.0837L10.125 19.0337L5.17502 14.0837C4.52493 13.4336 4.00925 12.6619 3.65742 11.8126C3.3056 10.9633 3.12451 10.053 3.12451 9.13366C3.12451 8.21434 3.3056 7.30403 3.65742 6.45471C4.00925 5.60538 4.52493 4.83368 5.17502 4.18366ZM10.125 11.1337C10.6554 11.1337 11.1642 10.9229 11.5392 10.5479C11.9143 10.1728 12.125 9.66409 12.125 9.13366C12.125 8.60322 11.9143 8.09452 11.5392 7.71944C11.1642 7.34437 10.6554 7.13366 10.125 7.13366C9.59458 7.13366 9.08588 7.34437 8.7108 7.71944C8.33573 8.09452 8.12502 8.60322 8.12502 9.13366C8.12502 9.66409 8.33573 10.1728 8.7108 10.5479C9.08588 10.9229 9.59458 11.1337 10.125 11.1337Z" fill="#878787"/>
</svg>
