<svg width="101" height="101" viewBox="0 0 101 101" fill="none" xmlns="http://www.w3.org/2000/svg">
<path fill-rule="evenodd" clip-rule="evenodd" d="M50.625 90.5C61.2337 90.5 71.4078 86.2857 78.9093 78.7843C86.4107 71.2828 90.625 61.1087 90.625 50.5C90.625 39.8913 86.4107 29.7172 78.9093 22.2157C71.4078 14.7143 61.2337 10.5 50.625 10.5C40.0163 10.5 29.8422 14.7143 22.3407 22.2157C14.8393 29.7172 10.625 39.8913 10.625 50.5C10.625 61.1087 14.8393 71.2828 22.3407 78.7843C29.8422 86.2857 40.0163 90.5 50.625 90.5ZM69.16 44.035C70.0708 43.092 70.5748 41.829 70.5634 40.518C70.552 39.207 70.0261 37.9529 69.0991 37.0259C68.1721 36.0989 66.918 35.573 65.607 35.5616C64.296 35.5502 63.033 36.0542 62.09 36.965L45.625 53.43L39.16 46.965C38.217 46.0542 36.954 45.5502 35.643 45.5616C34.332 45.573 33.0779 46.0989 32.1509 47.0259C31.2239 47.9529 30.698 49.207 30.6866 50.518C30.6752 51.829 31.1792 53.092 32.09 54.035L42.09 64.035C43.0276 64.9724 44.2992 65.4989 45.625 65.4989C46.9508 65.4989 48.2224 64.9724 49.16 64.035L69.16 44.035Z" fill="#056D16"/>
</svg>
